<svg width="50" height="50" viewBox="0 0 50 50" fill="none" xmlns="http://www.w3.org/2000/svg">
<g clip-path="url(#clip0_202_1946)">
<path d="M33.3337 20.8333C33.3337 25.4375 29.6045 29.1667 25.0003 29.1667C20.3962 29.1667 16.667 25.4375 16.667 20.8333C16.667 16.2292 20.3962 12.5 25.0003 12.5C29.6045 12.5 33.3337 16.2292 33.3337 20.8333Z" fill="black"/>
<path fill-rule="evenodd" clip-rule="evenodd" d="M25 50C38.8125 50 50 38.8125 50 25C50 11.1875 38.8125 0 25 0C11.1875 0 0 11.1875 0 25C0 38.8125 11.1875 50 25 50ZM38.0625 43.8333C44.0208 39.6875 47.9167 32.8125 47.9167 25C47.9167 12.3333 37.6667 2.08333 25 2.08333C12.3333 2.08333 2.08333 12.3333 2.08333 25C2.08333 32.8125 5.97917 39.6875 11.9375 43.8333C13.4062 41.0833 18.1458 33.3333 25 33.3333C31.8542 33.3333 36.5833 41.0833 38.0625 43.8333Z" fill="black"/>
</g>
<defs>
<clipPath id="clip0_202_1946">
<rect width="50" height="50" fill="white"/>
</clipPath>
</defs>
</svg>
