<svg width="55" height="55" viewBox="0 0 55 55" fill="none" xmlns="http://www.w3.org/2000/svg">
<circle cx="27.5" cy="27.5" r="27.5" fill="#D3E1FF"/>
<path d="M22.2917 25.4162H25.4167V22.2912L21.7708 18.6454C22.9371 18.0883 24.2474 17.9066 25.5212 18.1252C26.7951 18.3437 27.9699 18.9518 28.8838 19.8657C29.7977 20.7797 30.4058 21.9544 30.6243 23.2283C30.8429 24.5021 30.6612 25.8124 30.1042 26.9787L36.3542 33.2287C36.7686 33.6431 37.0014 34.2051 37.0014 34.7912C37.0014 35.3772 36.7686 35.9393 36.3542 36.3537C35.9398 36.7681 35.3777 37.0009 34.7917 37.0009C34.2056 37.0009 33.6436 36.7681 33.2292 36.3537L26.9792 30.1037C25.8129 30.6607 24.5026 30.8424 23.2287 30.6239C21.9549 30.4053 20.7801 29.7972 19.8662 28.8833C18.9523 27.9694 18.3442 26.7946 18.1256 25.5208C17.9071 24.2469 18.0888 22.9366 18.6458 21.7704L22.2917 25.4162Z" stroke="#0E65FB" stroke-width="1.9186" stroke-linecap="round" stroke-linejoin="round"/>
</svg>
