<svg width="22" height="22" viewBox="0 0 22 22" fill="none" xmlns="http://www.w3.org/2000/svg">
<path d="M11 10.1752C8.50301 10.1752 7.99701 6.3912 7.99701 6.3912C7.70001 4.4222 8.60201 2.2002 10.967 2.2002C13.343 2.2002 14.245 4.4222 13.948 6.3912C13.948 6.3912 13.497 10.1752 11 10.1752ZM11 13.0022L13.992 11.0002C16.621 11.0002 18.964 13.5632 18.964 15.9832V18.7222C18.964 18.7222 14.949 19.9652 11 19.9652C6.98501 19.9652 3.03601 18.7222 3.03601 18.7222V15.9832C3.03601 13.5082 5.17001 11.0552 7.95301 11.0552L11 13.0022Z" fill="#0E65FB"/>
</svg>
