<svg width="55" height="55" viewBox="0 0 55 55" fill="none" xmlns="http://www.w3.org/2000/svg">
<circle cx="27.5" cy="27.5" r="27.5" fill="#D3E1FF"/>
<path d="M35.8333 24.0734V23.8963C35.8396 22.1243 35.2774 20.3971 34.2293 18.9684C33.1812 17.5396 31.7025 16.4848 30.0104 15.9588H29.9479C29.0741 15.692 28.1635 15.5654 27.25 15.5838C25.0748 15.7031 23.0272 16.6481 21.525 18.2258C20.0228 19.8035 19.1793 21.8949 19.1667 24.0734C18.5562 24.2881 18.0275 24.687 17.6535 25.215C17.2795 25.7431 17.0787 26.3742 17.0787 27.0213C17.0787 27.6683 17.2795 28.2995 17.6535 28.8275C18.0275 29.3555 18.5562 29.7545 19.1667 29.9692C19.3812 32.0263 20.353 33.93 21.8932 35.3104C23.4334 36.6908 25.4318 37.4491 27.5 37.4379H27.7396C29.7395 37.3411 31.6405 36.5388 33.1051 35.1734C34.5696 33.808 35.503 31.9679 35.7396 29.9796C36.3572 29.777 36.8962 29.3869 37.2817 28.8636C37.6671 28.3403 37.8798 27.7098 37.8902 27.0599C37.9005 26.41 37.7079 25.7731 37.3392 25.2378C36.9706 24.7025 36.4442 24.2954 35.8333 24.0734ZM27.6875 35.3546C26.1796 35.3982 24.7068 34.895 23.5408 33.9377C22.3749 32.9805 21.5945 31.6338 21.3437 30.1463H33.6042C33.3499 31.5545 32.627 32.8354 31.5529 33.7809C30.4788 34.7264 29.1166 35.281 27.6875 35.3546ZM34.7917 28.0629H20.2083C19.9321 28.0629 19.6671 27.9532 19.4718 27.7578C19.2764 27.5625 19.1667 27.2975 19.1667 27.0213C19.1667 26.745 19.2764 26.4801 19.4718 26.2847C19.6671 26.0894 19.9321 25.9796 20.2083 25.9796H22.2917C22.5679 25.9796 22.8329 25.8699 23.0282 25.6745C23.2236 25.4792 23.3333 25.2142 23.3333 24.9379C23.3333 24.6617 23.2236 24.3967 23.0282 24.2014C22.8329 24.006 22.5679 23.8963 22.2917 23.8963H21.25C21.2966 22.8157 21.6055 21.7626 22.1499 20.828C22.6943 19.8934 23.458 19.1053 24.375 18.5317V21.8129C24.375 22.0892 24.4847 22.3542 24.6801 22.5495C24.8754 22.7449 25.1404 22.8546 25.4167 22.8546C25.6929 22.8546 25.9579 22.7449 26.1532 22.5495C26.3486 22.3542 26.4583 22.0892 26.4583 21.8129V17.74C26.741 17.692 27.0262 17.6607 27.3125 17.6463H27.5C27.849 17.6525 28.1971 17.6839 28.5417 17.74V21.8129C28.5417 22.0892 28.6514 22.3542 28.8468 22.5495C29.0421 22.7449 29.3071 22.8546 29.5833 22.8546C29.8596 22.8546 30.1245 22.7449 30.3199 22.5495C30.5152 22.3542 30.625 22.0892 30.625 21.8129V18.5004C31.0666 18.7567 31.4788 19.0606 31.8542 19.4067C32.4547 19.9899 32.932 20.6879 33.2577 21.4591C33.5834 22.2303 33.7508 23.0591 33.75 23.8963H32.7083C32.4321 23.8963 32.1671 24.006 31.9717 24.2014C31.7764 24.3967 31.6667 24.6617 31.6667 24.9379C31.6667 25.2142 31.7764 25.4792 31.9717 25.6745C32.1671 25.8699 32.4321 25.9796 32.7083 25.9796H34.7917C35.0679 25.9796 35.3329 26.0894 35.5282 26.2847C35.7236 26.4801 35.8333 26.745 35.8333 27.0213C35.8333 27.2975 35.7236 27.5625 35.5282 27.7578C35.3329 27.9532 35.0679 28.0629 34.7917 28.0629Z" fill="#0E65FB"/>
</svg>
