<svg width="39" height="39" viewBox="0 0 39 39" fill="none" xmlns="http://www.w3.org/2000/svg">
<g clip-path="url(#clip0_2_320)">
<path d="M31.0781 27.8404C31.916 28.2594 32.6714 28.7735 33.3442 29.3829C34.0171 29.9923 34.5884 30.6715 35.0581 31.4205C35.5278 32.1695 35.896 32.982 36.1626 33.858C36.4292 34.734 36.5625 35.6354 36.5625 36.5621H34.125C34.125 35.5592 33.9346 34.6134 33.5537 33.7247C33.1729 32.836 32.6523 32.0616 31.9922 31.4015C31.332 30.7413 30.5513 30.2145 29.6499 29.8209C28.7485 29.4274 27.8027 29.2369 26.8125 29.2496C25.7969 29.2496 24.8511 29.44 23.9751 29.8209C23.0991 30.2018 22.3247 30.7223 21.6519 31.3824C20.979 32.0426 20.4521 32.8233 20.0713 33.7247C19.6904 34.6261 19.5 35.5719 19.5 36.5621H17.0625C17.0625 35.6354 17.1895 34.734 17.4434 33.858C17.6973 32.982 18.0654 32.1695 18.5479 31.4205C19.0303 30.6715 19.6079 29.9923 20.2808 29.3829C20.9536 28.7735 21.709 28.2594 22.5469 27.8404C21.5947 27.1549 20.8521 26.298 20.3188 25.2696C19.7856 24.2413 19.5127 23.1305 19.5 21.9371C19.5 20.9342 19.3096 19.9884 18.9287 19.0997C18.5479 18.211 18.0273 17.4366 17.3672 16.7765C16.707 16.1163 15.9263 15.5895 15.0249 15.1959C14.1235 14.8024 13.1777 14.6119 12.1875 14.6246C11.1719 14.6246 10.2261 14.815 9.3501 15.1959C8.47412 15.5768 7.69971 16.0973 7.02686 16.7574C6.354 17.4176 5.82715 18.1983 5.44629 19.0997C5.06543 20.0011 4.875 20.9469 4.875 21.9371H2.4375C2.4375 21.0104 2.56445 20.109 2.81836 19.233C3.07227 18.357 3.44043 17.5445 3.92285 16.7955C4.40527 16.0465 4.98291 15.3673 5.65576 14.7579C6.32861 14.1485 7.08398 13.6344 7.92188 13.2154C6.96973 12.5299 6.22705 11.673 5.69385 10.6446C5.16064 9.61632 4.8877 8.50548 4.875 7.31212C4.875 6.30919 5.06543 5.36339 5.44629 4.47472C5.82715 3.58604 6.34766 2.81163 7.00781 2.15147C7.66797 1.49132 8.44238 0.964462 9.33105 0.570908C10.2197 0.177353 11.1719 -0.0130768 12.1875 -0.00038147C13.1904 -0.00038147 14.1362 0.190048 15.0249 0.570908C15.9136 0.951767 16.688 1.47227 17.3481 2.13243C18.0083 2.79259 18.5352 3.57335 18.9287 4.47472C19.3223 5.37608 19.5127 6.32188 19.5 7.31212C19.5 8.50548 19.2334 9.61632 18.7002 10.6446C18.167 11.673 17.418 12.5299 16.4531 13.2154C17.418 13.6979 18.2812 14.3199 19.043 15.0816C19.8047 15.8434 20.4268 16.7066 20.9092 17.6715C21.5947 16.7193 22.4517 15.9767 23.48 15.4435C24.5083 14.9103 25.6191 14.6373 26.8125 14.6246C27.8154 14.6246 28.7612 14.815 29.6499 15.1959C30.5386 15.5768 31.313 16.0973 31.9731 16.7574C32.6333 17.4176 33.1602 18.1983 33.5537 19.0997C33.9473 20.0011 34.1377 20.9469 34.125 21.9371C34.125 23.1305 33.8584 24.2413 33.3252 25.2696C32.792 26.298 32.043 27.1549 31.0781 27.8404ZM12.1875 12.1871C12.8604 12.1871 13.4888 12.0602 14.0728 11.8063C14.6567 11.5524 15.1772 11.2032 15.6343 10.7589C16.0913 10.3146 16.4404 9.8004 16.6816 9.21642C16.9229 8.63243 17.0498 7.99767 17.0625 7.31212C17.0625 6.63927 16.9355 6.01085 16.6816 5.42686C16.4277 4.84288 16.0786 4.32237 15.6343 3.86534C15.1899 3.40831 14.6758 3.05919 14.0918 2.81798C13.5078 2.57677 12.873 2.44981 12.1875 2.43712C11.5146 2.43712 10.8862 2.56407 10.3022 2.81798C9.71826 3.07188 9.19775 3.42101 8.74072 3.86534C8.28369 4.30968 7.93457 4.82384 7.69336 5.40782C7.45215 5.99181 7.3252 6.62657 7.3125 7.31212C7.3125 7.98497 7.43945 8.61339 7.69336 9.19737C7.94727 9.78136 8.29639 10.3019 8.74072 10.7589C9.18506 11.2159 9.69922 11.565 10.2832 11.8063C10.8672 12.0475 11.502 12.1744 12.1875 12.1871ZM26.8125 26.8121C27.4854 26.8121 28.1138 26.6852 28.6978 26.4313C29.2817 26.1774 29.8022 25.8282 30.2593 25.3839C30.7163 24.9396 31.0654 24.4254 31.3066 23.8414C31.5479 23.2574 31.6748 22.6227 31.6875 21.9371C31.6875 21.2643 31.5605 20.6358 31.3066 20.0519C31.0527 19.4679 30.7036 18.9474 30.2593 18.4903C29.8149 18.0333 29.3008 17.6842 28.7168 17.443C28.1328 17.2018 27.498 17.0748 26.8125 17.0621C26.1396 17.0621 25.5112 17.1891 24.9272 17.443C24.3433 17.6969 23.8228 18.046 23.3657 18.4903C22.9087 18.9347 22.5596 19.4488 22.3184 20.0328C22.0771 20.6168 21.9502 21.2516 21.9375 21.9371C21.9375 22.61 22.0645 23.2384 22.3184 23.8224C22.5723 24.4064 22.9214 24.9269 23.3657 25.3839C23.8101 25.8409 24.3242 26.19 24.9082 26.4313C25.4922 26.6725 26.127 26.7994 26.8125 26.8121ZM29.25 4.87462H21.9375V2.43712H31.6875V12.1871H29.25V4.87462Z" fill="#0E65FB"/>
</g>
<defs>
<clipPath id="clip0_2_320">
<rect width="39" height="39" fill="white"/>
</clipPath>
</defs>
</svg>
