<svg width="73" height="73" viewBox="0 0 73 73" fill="none" xmlns="http://www.w3.org/2000/svg">
<circle cx="36.5" cy="36.5" r="36.5" fill="#D3E1FF"/>
<g clip-path="url(#clip0_2_318)">
<path d="M48.0781 46.8404C48.916 47.2594 49.6714 47.7735 50.3442 48.3829C51.0171 48.9923 51.5884 49.6715 52.0581 50.4205C52.5278 51.1695 52.896 51.982 53.1626 52.858C53.4292 53.734 53.5625 54.6354 53.5625 55.5621H51.125C51.125 54.5592 50.9346 53.6134 50.5537 52.7247C50.1729 51.836 49.6523 51.0616 48.9922 50.4015C48.332 49.7413 47.5513 49.2145 46.6499 48.8209C45.7485 48.4274 44.8027 48.2369 43.8125 48.2496C42.7969 48.2496 41.8511 48.44 40.9751 48.8209C40.0991 49.2018 39.3247 49.7223 38.6519 50.3824C37.979 51.0426 37.4521 51.8233 37.0713 52.7247C36.6904 53.6261 36.5 54.5719 36.5 55.5621H34.0625C34.0625 54.6354 34.1895 53.734 34.4434 52.858C34.6973 51.982 35.0654 51.1695 35.5479 50.4205C36.0303 49.6715 36.6079 48.9923 37.2808 48.3829C37.9536 47.7735 38.709 47.2594 39.5469 46.8404C38.5947 46.1549 37.8521 45.298 37.3188 44.2696C36.7856 43.2413 36.5127 42.1305 36.5 40.9371C36.5 39.9342 36.3096 38.9884 35.9287 38.0997C35.5479 37.211 35.0273 36.4366 34.3672 35.7765C33.707 35.1163 32.9263 34.5895 32.0249 34.1959C31.1235 33.8024 30.1777 33.6119 29.1875 33.6246C28.1719 33.6246 27.2261 33.815 26.3501 34.1959C25.4741 34.5768 24.6997 35.0973 24.0269 35.7574C23.354 36.4176 22.8271 37.1983 22.4463 38.0997C22.0654 39.0011 21.875 39.9469 21.875 40.9371H19.4375C19.4375 40.0104 19.5645 39.109 19.8184 38.233C20.0723 37.357 20.4404 36.5445 20.9229 35.7955C21.4053 35.0465 21.9829 34.3673 22.6558 33.7579C23.3286 33.1485 24.084 32.6344 24.9219 32.2154C23.9697 31.5299 23.2271 30.673 22.6938 29.6446C22.1606 28.6163 21.8877 27.5055 21.875 26.3121C21.875 25.3092 22.0654 24.3634 22.4463 23.4747C22.8271 22.586 23.3477 21.8116 24.0078 21.1515C24.668 20.4913 25.4424 19.9645 26.3311 19.5709C27.2197 19.1774 28.1719 18.9869 29.1875 18.9996C30.1904 18.9996 31.1362 19.19 32.0249 19.5709C32.9136 19.9518 33.688 20.4723 34.3481 21.1324C35.0083 21.7926 35.5352 22.5733 35.9287 23.4747C36.3223 24.3761 36.5127 25.3219 36.5 26.3121C36.5 27.5055 36.2334 28.6163 35.7002 29.6446C35.167 30.673 34.418 31.5299 33.4531 32.2154C34.418 32.6979 35.2812 33.3199 36.043 34.0816C36.8047 34.8434 37.4268 35.7066 37.9092 36.6715C38.5947 35.7193 39.4517 34.9767 40.48 34.4435C41.5083 33.9103 42.6191 33.6373 43.8125 33.6246C44.8154 33.6246 45.7612 33.815 46.6499 34.1959C47.5386 34.5768 48.313 35.0973 48.9731 35.7574C49.6333 36.4176 50.1602 37.1983 50.5537 38.0997C50.9473 39.0011 51.1377 39.9469 51.125 40.9371C51.125 42.1305 50.8584 43.2413 50.3252 44.2696C49.792 45.298 49.043 46.1549 48.0781 46.8404ZM29.1875 31.1871C29.8604 31.1871 30.4888 31.0602 31.0728 30.8063C31.6567 30.5524 32.1772 30.2032 32.6343 29.7589C33.0913 29.3146 33.4404 28.8004 33.6816 28.2164C33.9229 27.6324 34.0498 26.9977 34.0625 26.3121C34.0625 25.6393 33.9355 25.0108 33.6816 24.4269C33.4277 23.8429 33.0786 23.3224 32.6343 22.8653C32.1899 22.4083 31.6758 22.0592 31.0918 21.818C30.5078 21.5768 29.873 21.4498 29.1875 21.4371C28.5146 21.4371 27.8862 21.5641 27.3022 21.818C26.7183 22.0719 26.1978 22.421 25.7407 22.8653C25.2837 23.3097 24.9346 23.8238 24.6934 24.4078C24.4521 24.9918 24.3252 25.6266 24.3125 26.3121C24.3125 26.985 24.4395 27.6134 24.6934 28.1974C24.9473 28.7814 25.2964 29.3019 25.7407 29.7589C26.1851 30.2159 26.6992 30.565 27.2832 30.8063C27.8672 31.0475 28.502 31.1744 29.1875 31.1871ZM43.8125 45.8121C44.4854 45.8121 45.1138 45.6852 45.6978 45.4313C46.2817 45.1774 46.8022 44.8282 47.2593 44.3839C47.7163 43.9396 48.0654 43.4254 48.3066 42.8414C48.5479 42.2574 48.6748 41.6227 48.6875 40.9371C48.6875 40.2643 48.5605 39.6358 48.3066 39.0519C48.0527 38.4679 47.7036 37.9474 47.2593 37.4903C46.8149 37.0333 46.3008 36.6842 45.7168 36.443C45.1328 36.2018 44.498 36.0748 43.8125 36.0621C43.1396 36.0621 42.5112 36.1891 41.9272 36.443C41.3433 36.6969 40.8228 37.046 40.3657 37.4903C39.9087 37.9347 39.5596 38.4488 39.3184 39.0328C39.0771 39.6168 38.9502 40.2516 38.9375 40.9371C38.9375 41.61 39.0645 42.2384 39.3184 42.8224C39.5723 43.4064 39.9214 43.9269 40.3657 44.3839C40.8101 44.8409 41.3242 45.19 41.9082 45.4313C42.4922 45.6725 43.127 45.7994 43.8125 45.8121ZM46.25 23.8746H38.9375V21.4371H48.6875V31.1871H46.25V23.8746Z" fill="#0E65FB"/>
</g>
<defs>
<clipPath id="clip0_2_318">
<rect width="39" height="39" fill="white" transform="translate(17 19)"/>
</clipPath>
</defs>
</svg>
