<svg width="40" height="37" viewBox="0 0 40 37" fill="none" xmlns="http://www.w3.org/2000/svg">
<path fill-rule="evenodd" clip-rule="evenodd" d="M19.5278 35.15C29.2341 35.15 37.1028 27.6954 37.1028 18.5C37.1028 9.30457 29.2341 1.85 19.5278 1.85C9.8215 1.85 1.95278 9.30457 1.95278 18.5C1.95278 27.6954 9.8215 35.15 19.5278 35.15ZM19.5278 37C30.313 37 39.0556 28.7176 39.0556 18.5C39.0556 8.28245 30.313 0 19.5278 0C8.74259 0 0 8.28245 0 18.5C0 28.7176 8.74259 37 19.5278 37Z" fill="#0E65FB"/>
<path fill-rule="evenodd" clip-rule="evenodd" d="M29.9458 11.3393C30.1379 11.5037 30.2532 11.7336 30.2664 11.9785C30.2796 12.2234 30.1896 12.4633 30.0161 12.6454L16.9755 26.2993L9.09016 19.1685C8.9131 18.997 8.81324 18.7671 8.81166 18.5273C8.81009 18.2875 8.9069 18.0564 9.08169 17.8829C9.25648 17.7094 9.49558 17.607 9.74854 17.5973C10.0015 17.5876 10.2485 17.6713 10.4376 17.8309L16.872 23.6492L28.5681 11.4049C28.6542 11.3148 28.7582 11.2417 28.8741 11.1896C28.9901 11.1376 29.1157 11.1077 29.2438 11.1017C29.3719 11.0957 29.5 11.1137 29.6208 11.1546C29.7416 11.1955 29.8527 11.2586 29.9478 11.3402" fill="#0E65FB"/>
</svg>
