<svg width="55" height="55" viewBox="0 0 55 55" fill="none" xmlns="http://www.w3.org/2000/svg">
<circle cx="27.5" cy="27.5" r="27.5" fill="#D3E1FF"/>
<path d="M18.1908 27.5288L22.5276 31.8657C22.7328 32.0709 22.8354 32.332 22.8354 32.6491C22.8354 32.9662 22.7328 33.2273 22.5276 33.4325C22.3224 33.6377 22.0613 33.7403 21.7442 33.7403C21.4271 33.7403 21.1659 33.6377 20.9608 33.4325L15.8125 28.2843C15.7006 28.1724 15.6211 28.0511 15.5741 27.9205C15.5271 27.79 15.5044 27.6501 15.5059 27.5008C15.5073 27.3516 15.5308 27.2117 15.5764 27.0811C15.6219 26.9506 15.701 26.8293 15.8136 26.7174L20.9619 21.5692C21.1857 21.3453 21.4517 21.2334 21.7599 21.2334C22.068 21.2334 22.3336 21.3453 22.5567 21.5692C22.7798 21.793 22.8917 22.059 22.8925 22.3671C22.8932 22.6753 22.7813 22.9409 22.5567 23.164L18.1908 27.5288ZM34.2511 27.4729L29.9143 23.136C29.7091 22.9308 29.6065 22.6697 29.6065 22.3526C29.6065 22.0355 29.7091 21.7743 29.9143 21.5692C30.1194 21.364 30.3806 21.2614 30.6977 21.2614C31.0148 21.2614 31.2759 21.364 31.4811 21.5692L36.6294 26.7174C36.7413 26.8293 36.8208 26.9506 36.8678 27.0811C36.9148 27.2117 36.9379 27.3516 36.9371 27.5008C36.9364 27.6501 36.9133 27.79 36.8678 27.9205C36.8222 28.0511 36.7428 28.1724 36.6294 28.2843L31.4811 33.4325C31.2573 33.6564 30.9961 33.7638 30.6977 33.7549C30.3992 33.7459 30.1381 33.6291 29.9143 33.4045C29.6904 33.18 29.5785 32.9143 29.5785 32.6077C29.5785 32.301 29.6904 32.035 29.9143 31.8097L34.2511 27.4729Z" fill="#0E65FB"/>
</svg>
