<svg width="47" height="47" viewBox="0 0 47 47" fill="none" xmlns="http://www.w3.org/2000/svg">
<path d="M29.3742 35.25V36.7187C29.3742 38.2769 28.7552 39.7712 27.6534 40.873C26.5516 41.9748 25.0573 42.5937 23.4992 42.5937C21.941 42.5937 20.4467 41.9748 19.3449 40.873C18.2431 39.7712 17.6242 38.2769 17.6242 36.7187V35.25M39.2589 32.2602C36.9015 29.375 35.2372 27.9063 35.2372 19.9521C35.2372 12.668 31.5176 10.0729 28.4562 8.8125C28.0495 8.64543 27.6667 8.26172 27.5428 7.84404C27.0058 6.01637 25.5003 4.40625 23.4992 4.40625C21.498 4.40625 19.9916 6.01729 19.4601 7.84588C19.3362 8.26814 18.9534 8.64543 18.5467 8.8125C15.4816 10.0747 11.7657 12.6606 11.7657 19.9521C11.7611 27.9063 10.0968 29.375 7.73948 32.2602C6.76277 33.4554 7.61831 35.25 9.32665 35.25H37.6809C39.38 35.25 40.2301 33.4499 39.2589 32.2602Z" stroke="black" stroke-width="2" stroke-linecap="round" stroke-linejoin="round"/>
</svg>
