<svg width="47" height="47" viewBox="0 0 47 47" fill="none" xmlns="http://www.w3.org/2000/svg">
<path d="M29.3751 35.25V36.7187C29.3751 38.2769 28.7562 39.7712 27.6544 40.873C26.5526 41.9748 25.0583 42.5937 23.5001 42.5937C21.942 42.5937 20.4477 41.9748 19.3459 40.873C18.2441 39.7712 17.6251 38.2769 17.6251 36.7187V35.25M39.2598 32.2602C36.9025 29.375 35.2382 27.9063 35.2382 19.9521C35.2382 12.668 31.5186 10.0729 28.4572 8.8125C28.0505 8.64543 27.6677 8.26172 27.5438 7.84404C27.0068 6.01637 25.5013 4.40625 23.5001 4.40625C21.499 4.40625 19.9926 6.01729 19.4611 7.84588C19.3372 8.26814 18.9544 8.64543 18.5477 8.8125C15.4826 10.0747 11.7667 12.6606 11.7667 19.9521C11.7621 27.9063 10.0978 29.375 7.74046 32.2602C6.76374 33.4554 7.61929 35.25 9.32763 35.25H37.6818C39.381 35.25 40.231 33.4499 39.2598 32.2602Z" stroke="black" stroke-width="2" stroke-linecap="round" stroke-linejoin="round"/>
</svg>
