<svg width="64" height="50" viewBox="0 0 64 50" fill="none" xmlns="http://www.w3.org/2000/svg">
<g clip-path="url(#clip0_2_2290)">
<path d="M11.6353 49.7501V46.4408C11.6353 45.1719 10.8668 44.3448 9.54953 44.3448C8.89103 44.3448 8.17753 44.5654 7.68353 45.2825C7.29953 44.6757 6.75078 44.3448 5.92753 44.3448C5.37853 44.3448 4.83003 44.5101 4.39078 45.1169V44.4551H3.23828V49.7501H4.39078V46.8267C4.39078 45.8893 4.88478 45.4478 5.65328 45.4478C6.42128 45.4478 6.80578 45.9443 6.80578 46.8267V49.7501H7.95828V46.8267C7.95828 45.8893 8.50678 45.4478 9.22028 45.4478C9.98878 45.4478 10.3728 45.9443 10.3728 46.8267V49.7501H11.6353ZM28.703 44.4551H26.8373V42.8556H25.6848V44.4551H24.642V45.5028H25.6845V47.93C25.6845 49.1435 26.1785 49.8604 27.4958 49.8604C27.9898 49.8604 28.5383 49.6951 28.9228 49.4745L28.5933 48.4815C28.264 48.7021 27.88 48.7574 27.6055 48.7574C27.0568 48.7574 26.8373 48.4265 26.8373 47.8747V45.5028H28.703V44.4551ZM38.472 44.3446C37.8135 44.3446 37.3745 44.6757 37.1 45.1169V44.4551H35.9475V49.7501H37.1V46.7717C37.1 45.8893 37.484 45.3928 38.1975 45.3928C38.417 45.3928 38.6915 45.4481 38.911 45.5031L39.2403 44.4001C39.0208 44.3448 38.6915 44.3448 38.472 44.3448M23.709 44.8966C23.16 44.5104 22.3918 44.3451 21.5685 44.3451C20.2515 44.3451 19.3735 45.0069 19.3735 46.0549C19.3735 46.9375 20.032 47.4337 21.1845 47.5993L21.7333 47.6546C22.337 47.7647 22.6663 47.9302 22.6663 48.2061C22.6663 48.592 22.2273 48.8679 21.4588 48.8679C20.6903 48.8679 20.0868 48.592 19.7025 48.3164L19.1538 49.1988C19.7575 49.64 20.5808 49.8606 21.4038 49.8606C22.9405 49.8606 23.8188 49.1438 23.8188 48.1508C23.8188 47.2131 23.1053 46.7167 22.0075 46.5513L21.4588 46.4961C20.9648 46.4408 20.5808 46.3307 20.5808 45.9998C20.5808 45.6136 20.9648 45.393 21.5685 45.393C22.2273 45.393 22.8858 45.6687 23.215 45.8342L23.709 44.8966ZM54.3328 44.3451C53.674 44.3451 53.235 44.676 52.9605 45.1172V44.4554H51.808V49.7503H52.9605V46.7719C52.9605 45.8895 53.3448 45.393 54.058 45.393C54.2778 45.393 54.5523 45.4483 54.7718 45.5033L55.101 44.4003C54.8815 44.3451 54.5523 44.3451 54.3328 44.3451ZM39.6245 47.1028C39.6245 48.7023 40.722 49.8606 42.4235 49.8606C43.1918 49.8606 43.7405 49.6953 44.2893 49.2541L43.7405 48.3164C43.3015 48.6473 42.8625 48.8126 42.3685 48.8126C41.4355 48.8126 40.777 48.1508 40.777 47.1028C40.777 46.1101 41.4355 45.4481 42.3685 45.393C42.8625 45.393 43.3015 45.5584 43.7405 45.8895L44.2893 44.9518C43.7405 44.5104 43.1918 44.3451 42.4235 44.3451C40.722 44.3451 39.6245 45.5033 39.6245 47.1028ZM50.2715 47.1028V44.4554H49.119V45.1172C48.7348 44.6209 48.186 44.3451 47.4725 44.3451C45.9908 44.3451 44.8383 45.5033 44.8383 47.1028C44.8383 48.7023 45.9908 49.8606 47.4725 49.8606C48.2408 49.8606 48.7898 49.585 49.119 49.0885V49.7503H50.2715V47.1028ZM46.0455 47.1028C46.0455 46.1652 46.6493 45.393 47.637 45.393C48.57 45.393 49.2288 46.1101 49.2288 47.1028C49.2288 48.0405 48.57 48.8126 47.637 48.8126C46.6493 48.7574 46.0455 48.0405 46.0455 47.1028ZM32.2705 44.3451C30.7338 44.3451 29.636 45.4481 29.636 47.1028C29.636 48.7576 30.7335 49.8606 32.3253 49.8606C33.0935 49.8606 33.862 49.64 34.4658 49.1438L33.9168 48.3164C33.4778 48.6473 32.929 48.8679 32.3803 48.8679C31.6668 48.8679 30.9533 48.537 30.7885 47.5991H34.6853V47.1581C34.7403 45.4481 33.7525 44.3451 32.2705 44.3451ZM32.2703 45.3378C32.9835 45.3378 33.4778 45.7792 33.5873 46.6066H30.8433C30.953 45.8895 31.447 45.3378 32.2703 45.3378ZM60.8633 47.1028V42.3594H59.7108V45.1172C59.3265 44.6209 58.7778 44.3451 58.0643 44.3451C56.5825 44.3451 55.43 45.5033 55.43 47.1028C55.43 48.7023 56.5825 49.8606 58.0643 49.8606C58.8328 49.8606 59.3815 49.585 59.7108 49.0885V49.7503H60.8633V47.1028ZM56.6375 47.1028C56.6375 46.1652 57.241 45.393 58.229 45.393C59.162 45.393 59.8205 46.1101 59.8205 47.1028C59.8205 48.0405 59.162 48.8126 58.229 48.8126C57.241 48.7574 56.6375 48.0405 56.6375 47.1028ZM18.1108 47.1028V44.4554H16.9583V45.1172C16.574 44.6209 16.0253 44.3451 15.3118 44.3451C13.83 44.3451 12.6775 45.5033 12.6775 47.1028C12.6775 48.7023 13.83 49.8606 15.3118 49.8606C16.0803 49.8606 16.629 49.585 16.9583 49.0885V49.7503H18.1108V47.1028ZM13.83 47.1028C13.83 46.1652 14.4338 45.393 15.4215 45.393C16.3545 45.393 17.0133 46.1101 17.0133 47.1028C17.0133 48.0405 16.3545 48.8126 15.4215 48.8126C14.4338 48.7574 13.83 48.0405 13.83 47.1028Z" fill="black"/>
<path d="M23.3242 4.24609H40.6117V35.4649H23.3242V4.24609Z" fill="#FF5F00"/>
<path d="M24.4223 19.8565C24.4223 13.5136 27.3857 7.88744 31.9408 4.24698C28.5933 1.5995 24.3675 0 19.7575 0C8.83575 0 0 8.88015 0 19.8565C0 30.8329 8.83575 39.7131 19.7572 39.7131C24.3673 39.7131 28.593 38.1136 31.9408 35.4658C27.3857 31.8807 24.4223 26.1995 24.4223 19.8565Z" fill="#EB001B"/>
<path d="M63.9368 19.8565C63.9368 30.8327 55.1011 39.7131 44.1796 39.7131C39.5696 39.7131 35.3438 38.1136 31.9961 35.4658C36.6061 31.8256 39.5148 26.1995 39.5148 19.8565C39.5148 13.5136 36.5511 7.88744 31.9961 4.24698C35.3436 1.5995 39.5696 0 44.1796 0C55.1011 0 63.9368 8.93543 63.9368 19.8565Z" fill="#F79E1B"/>
</g>
<defs>
<clipPath id="clip0_2_2290">
<rect width="64" height="50" fill="white"/>
</clipPath>
</defs>
</svg>
