<svg width="40" height="40" viewBox="0 0 40 40" fill="none" xmlns="http://www.w3.org/2000/svg">
<path d="M10.6417 22.6933H14.315L23.0967 13.91C23.2389 13.7456 23.3461 13.5733 23.4183 13.3933C23.4906 13.2133 23.5267 13.0344 23.5267 12.8567C23.5267 12.6789 23.4889 12.5028 23.4133 12.3283C23.3389 12.155 23.2333 11.9856 23.0967 11.82L21.5633 10.2367C21.42 10.0933 21.2544 9.98611 21.0667 9.915C20.8789 9.84389 20.6933 9.80833 20.51 9.80833C20.3322 9.80833 20.1533 9.84389 19.9733 9.915C19.7933 9.98611 19.6206 10.0933 19.455 10.2367L10.6417 19.02V22.6933ZM12.115 21.2167V19.6333L17.8617 13.8867L18.6317 14.7L19.4133 15.5017L13.6983 21.2167H12.115ZM18.6317 14.7L19.4133 15.5017L17.8633 13.885L18.6317 14.7ZM19.6817 22.6917H29.36V21.025H21.35L19.6817 22.6917ZM5 33.4617V7.69333C5 6.92556 5.25722 6.285 5.77167 5.77167C6.28611 5.25833 6.92611 5.00111 7.69167 5H32.3083C33.075 5 33.715 5.25722 34.2283 5.77167C34.7417 6.28611 34.9989 6.92667 35 7.69333V25.6417C35 26.4083 34.7428 27.0489 34.2283 27.5633C33.7139 28.0778 33.0739 28.3344 32.3083 28.3333H10.1283L5 33.4617ZM9.41667 26.6667H32.3083C32.5639 26.6667 32.7989 26.56 33.0133 26.3467C33.2278 26.1333 33.3344 25.8983 33.3333 25.6417V7.69167C33.3333 7.43611 33.2267 7.20111 33.0133 6.98667C32.8 6.77222 32.565 6.66556 32.3083 6.66667H7.69167C7.43611 6.66667 7.20111 6.77333 6.98667 6.98667C6.77222 7.2 6.66556 7.435 6.66667 7.69167V29.4083L9.41667 26.6667Z" fill="black" fill-opacity="0.5"/>
</svg>
