<svg width="48" height="48" viewBox="0 0 48 48" fill="none" xmlns="http://www.w3.org/2000/svg">
<mask id="path-1-inside-1_2_311" fill="white">
<path d="M10.232 40C9.31067 40 8.542 39.692 7.926 39.076C7.31 38.46 7.00133 37.6907 7 36.768V11.232C7 10.3107 7.30867 9.542 7.926 8.926C8.54333 8.31 9.31133 8.00133 10.23 8H28.846V10H10.232C9.924 10 9.64133 10.128 9.384 10.384C9.12667 10.64 8.99867 10.9227 9 11.232V36.77C9 37.0767 9.128 37.3587 9.384 37.616C9.64 37.8733 9.922 38.0013 10.23 38H35.77C36.0767 38 36.3587 37.872 36.616 37.616C36.8733 37.36 37.0013 37.078 37 36.77V18.154H39V36.77C39 37.69 38.692 38.4587 38.076 39.076C37.46 39.6933 36.6907 40.0013 35.768 40H10.232ZM16 33V31H30V33H16ZM16 27V25H30V27H16ZM16 21V19H30V21H16ZM35 16V12H31V10H35V6H37V10H41V12H37V16H35Z"/>
</mask>
<path d="M10.232 40C9.31067 40 8.542 39.692 7.926 39.076C7.31 38.46 7.00133 37.6907 7 36.768V11.232C7 10.3107 7.30867 9.542 7.926 8.926C8.54333 8.31 9.31133 8.00133 10.23 8H28.846V10H10.232C9.924 10 9.64133 10.128 9.384 10.384C9.12667 10.64 8.99867 10.9227 9 11.232V36.77C9 37.0767 9.128 37.3587 9.384 37.616C9.64 37.8733 9.922 38.0013 10.23 38H35.77C36.0767 38 36.3587 37.872 36.616 37.616C36.8733 37.36 37.0013 37.078 37 36.77V18.154H39V36.77C39 37.69 38.692 38.4587 38.076 39.076C37.46 39.6933 36.6907 40.0013 35.768 40H10.232ZM16 33V31H30V33H16ZM16 27V25H30V27H16ZM16 21V19H30V21H16ZM35 16V12H31V10H35V6H37V10H41V12H37V16H35Z" fill="#0E65FB"/>
<path d="M7 36.768H4L4 36.7723L7 36.768ZM10.23 8V5L10.2256 5L10.23 8ZM28.846 8H31.846V5H28.846V8ZM28.846 10V13H31.846V10H28.846ZM9 11.232H12L12 11.2191L9 11.232ZM10.23 38V35L10.217 35L10.23 38ZM37 36.77H34L34 36.783L37 36.77ZM37 18.154V15.154H34V18.154H37ZM39 18.154H42V15.154H39V18.154ZM35.768 40L35.7723 37H35.768V40ZM16 33H13V36H16V33ZM16 31V28H13V31H16ZM30 31H33V28H30V31ZM30 33V36H33V33H30ZM16 27H13V30H16V27ZM16 25V22H13V25H16ZM30 25H33V22H30V25ZM30 27V30H33V27H30ZM16 21H13V24H16V21ZM16 19V16H13V19H16ZM30 19H33V16H30V19ZM30 21V24H33V21H30ZM35 16H32V19H35V16ZM35 12H38V9H35V12ZM31 12H28V15H31V12ZM31 10V7H28V10H31ZM35 10V13H38V10H35ZM35 6V3H32V6H35ZM37 6H40V3H37V6ZM37 10H34V13H37V10ZM41 10H44V7H41V10ZM41 12V15H44V12H41ZM37 12V9H34V12H37ZM37 16V19H40V16H37ZM10.232 40V37C10.1691 37 10.129 36.9948 10.1075 36.9909C10.0966 36.9889 10.0895 36.9871 10.0856 36.9859C10.0837 36.9854 10.0823 36.9849 10.0815 36.9847C10.0807 36.9844 10.0803 36.9842 10.0803 36.9842C10.0803 36.9842 10.0804 36.9843 10.0805 36.9843C10.0806 36.9844 10.0808 36.9844 10.081 36.9845C10.0813 36.9847 10.0818 36.9849 10.0821 36.9851C10.0831 36.9856 10.083 36.9856 10.0818 36.9848C10.0802 36.9837 10.0684 36.9758 10.0473 36.9547L7.926 39.076L5.80468 41.1973C7.01829 42.4109 8.56592 43 10.232 43V40ZM7.926 39.076L10.0473 36.9547C10.0262 36.9336 10.0182 36.9217 10.0169 36.9198C10.016 36.9184 10.0159 36.9182 10.0163 36.9189C10.0166 36.9196 10.0168 36.9201 10.0168 36.9199C10.0167 36.9197 10.0159 36.9178 10.0147 36.9136C10.0135 36.9094 10.0116 36.9019 10.0095 36.8906C10.0054 36.8683 10.0001 36.8274 10 36.7637L7 36.768L4 36.7723C4.00241 38.437 4.59133 39.984 5.80468 41.1973L7.926 39.076ZM7 36.768H10V11.232H7H4V36.768H7ZM7 11.232H10C10 11.1114 10.019 11.0735 10.0154 11.0824C10.0147 11.0841 10.0137 11.0856 10.0146 11.0843C10.0157 11.0827 10.0237 11.0709 10.045 11.0496L7.926 8.926L5.80697 6.80239C4.5912 8.01554 4 9.56389 4 11.232H7ZM7.926 8.926L10.045 11.0496C10.0672 11.0275 10.08 11.0187 10.0827 11.0169C10.0844 11.0157 10.085 11.0155 10.0845 11.0157C10.084 11.016 10.0836 11.0162 10.0838 11.0161C10.0839 11.016 10.0857 11.0153 10.0897 11.0142C10.0936 11.013 10.1008 11.0112 10.1115 11.0092C10.1328 11.0053 10.1724 11.0001 10.2344 11L10.23 8L10.2256 5C8.56101 5.00242 7.01811 5.59387 5.80697 6.80239L7.926 8.926ZM10.23 8V11H28.846V8V5H10.23V8ZM28.846 8H25.846V10H28.846H31.846V8H28.846ZM28.846 10V7H10.232V10V13H28.846V10ZM10.232 10V7C8.99079 7 7.97975 7.54931 7.2682 8.25718L9.384 10.384L11.4998 12.5108C11.4166 12.5936 11.2621 12.7222 11.0265 12.8289C10.782 12.9396 10.5081 13 10.232 13V10ZM9.384 10.384L7.2682 8.25718C6.54832 8.97332 5.99464 9.99392 6.00003 11.2449L9 11.232L12 11.2191C12.0012 11.497 11.9412 11.7753 11.8279 12.0255C11.7187 12.2667 11.586 12.425 11.4998 12.5108L9.384 10.384ZM9 11.232H6V36.77H9H12V11.232H9ZM9 36.77H6C6 38.0134 6.55224 39.0232 7.25718 39.7318L9.384 37.616L11.5108 35.5002C11.5925 35.5823 11.7209 35.7361 11.8278 35.9716C11.9387 36.2161 12 36.4913 12 36.77H9ZM9.384 37.616L7.25718 39.7318C7.97037 40.4487 8.98972 41.0054 10.243 41L10.23 38L10.217 35C10.4975 34.9988 10.7772 35.0597 11.0274 35.1732C11.2684 35.2826 11.4261 35.415 11.5108 35.5002L9.384 37.616ZM10.23 38V41H35.77V38V35H10.23V38ZM35.77 38V41C37.0134 41 38.0232 40.4478 38.7318 39.7428L36.616 37.616L34.5002 35.4892C34.5823 35.4075 34.7361 35.2791 34.9716 35.1722C35.2161 35.0613 35.4913 35 35.77 35V38ZM36.616 37.616L38.7318 39.7428C39.4487 39.0296 40.0054 38.0103 40 36.757L37 36.77L34 36.783C33.9988 36.5025 34.0597 36.2228 34.1732 35.9726C34.2826 35.7316 34.415 35.5739 34.5002 35.4892L36.616 37.616ZM37 36.77H40V18.154H37H34V36.77H37ZM37 18.154V21.154H39V18.154V15.154H37V18.154ZM39 18.154H36V36.77H39H42V18.154H39ZM39 36.77H36C36 36.8323 35.9948 36.872 35.9909 36.8933C35.989 36.9041 35.9872 36.9112 35.986 36.9151C35.9849 36.919 35.9842 36.9207 35.9842 36.9207C35.9842 36.9207 35.9843 36.9206 35.9844 36.9203C35.9845 36.92 35.9847 36.9197 35.9848 36.9194C35.9852 36.9187 35.9851 36.919 35.9841 36.9205C35.9826 36.9228 35.9741 36.9352 35.9524 36.957L38.076 39.076L40.1996 41.195C41.4102 39.9819 42 38.436 42 36.77H39ZM38.076 39.076L35.9524 36.957C35.9315 36.9779 35.9201 36.9855 35.9189 36.9863C35.9181 36.9869 35.92 36.9857 35.922 36.9849C35.9315 36.9811 35.8937 37.0002 35.7723 37L35.768 40L35.7637 43C37.4332 43.0024 38.9844 42.4128 40.1996 41.195L38.076 39.076ZM35.768 40V37H10.232V40V43H35.768V40ZM16 33H19V31H16H13V33H16ZM16 31V34H30V31V28H16V31ZM30 31H27V33H30H33V31H30ZM30 33V30H16V33V36H30V33ZM16 27H19V25H16H13V27H16ZM16 25V28H30V25V22H16V25ZM30 25H27V27H30H33V25H30ZM30 27V24H16V27V30H30V27ZM16 21H19V19H16H13V21H16ZM16 19V22H30V19V16H16V19ZM30 19H27V21H30H33V19H30ZM30 21V18H16V21V24H30V21ZM35 16H38V12H35H32V16H35ZM35 12V9H31V12V15H35V12ZM31 12H34V10H31H28V12H31ZM31 10V13H35V10V7H31V10ZM35 10H38V6H35H32V10H35ZM35 6V9H37V6V3H35V6ZM37 6H34V10H37H40V6H37ZM37 10V13H41V10V7H37V10ZM41 10H38V12H41H44V10H41ZM41 12V9H37V12V15H41V12ZM37 12H34V16H37H40V12H37ZM37 16V13H35V16V19H37V16Z" fill="#0E65FB" mask="url(#path-1-inside-1_2_311)"/>
</svg>
