<svg width="27" height="27" viewBox="0 0 27 27" fill="none" xmlns="http://www.w3.org/2000/svg">
<path d="M5.40007 13.4585L9.73691 17.7954C9.9421 18.0005 10.0447 18.2617 10.0447 18.5788C10.0447 18.8959 9.9421 19.157 9.73691 19.3622C9.53173 19.5674 9.27059 19.67 8.95348 19.67C8.63638 19.67 8.37524 19.5674 8.17005 19.3622L3.0218 14.214C2.90988 14.102 2.83042 13.9808 2.78341 13.8502C2.73641 13.7197 2.71365 13.5798 2.71514 13.4305C2.71663 13.2813 2.74014 13.1414 2.78565 13.0108C2.83116 12.8803 2.91025 12.759 3.02292 12.6471L8.17117 7.49884C8.39501 7.275 8.661 7.16309 8.96915 7.16309C9.2773 7.16309 9.54292 7.275 9.76601 7.49884C9.9891 7.72268 10.101 7.98867 10.1018 8.29682C10.1025 8.60497 9.9906 8.87059 9.76601 9.09368L5.40007 13.4585ZM21.4604 13.4025L17.1235 9.0657C16.9184 8.86052 16.8158 8.59937 16.8158 8.28227C16.8158 7.96517 16.9184 7.70403 17.1235 7.49884C17.3287 7.29366 17.5899 7.19107 17.907 7.19107C18.2241 7.19107 18.4852 7.29366 18.6904 7.49884L23.8387 12.6471C23.9506 12.759 24.03 12.8803 24.077 13.0108C24.1241 13.1414 24.1472 13.2813 24.1464 13.4305C24.1457 13.5798 24.1226 13.7197 24.077 13.8502C24.0315 13.9808 23.9521 14.102 23.8387 14.214L18.6904 19.3622C18.4666 19.5861 18.2054 19.6935 17.907 19.6845C17.6085 19.6756 17.3474 19.5588 17.1235 19.3342C16.8997 19.1097 16.7878 18.844 16.7878 18.5374C16.7878 18.2307 16.8997 17.9647 17.1235 17.7394L21.4604 13.4025Z" fill="#0E65FB"/>
</svg>
