<svg width="25" height="25" viewBox="0 0 25 25" fill="none" xmlns="http://www.w3.org/2000/svg">
<path d="M18.2292 12.5C17.8148 12.5 17.4173 12.3354 17.1243 12.0424C16.8313 11.7493 16.6667 11.3519 16.6667 10.9375C16.6667 10.5231 16.8313 10.1257 17.1243 9.83265C17.4173 9.53962 17.8148 9.375 18.2292 9.375C18.6436 9.375 19.041 9.53962 19.334 9.83265C19.627 10.1257 19.7917 10.5231 19.7917 10.9375C19.7917 11.3519 19.627 11.7493 19.334 12.0424C19.041 12.3354 18.6436 12.5 18.2292 12.5ZM15.1042 8.33333C14.6898 8.33333 14.2923 8.16871 13.9993 7.87569C13.7063 7.58266 13.5417 7.18523 13.5417 6.77083C13.5417 6.35643 13.7063 5.959 13.9993 5.66598C14.2923 5.37295 14.6898 5.20833 15.1042 5.20833C15.5186 5.20833 15.916 5.37295 16.209 5.66598C16.502 5.959 16.6667 6.35643 16.6667 6.77083C16.6667 7.18523 16.502 7.58266 16.209 7.87569C15.916 8.16871 15.5186 8.33333 15.1042 8.33333ZM9.89583 8.33333C9.48143 8.33333 9.084 8.16871 8.79098 7.87569C8.49795 7.58266 8.33333 7.18523 8.33333 6.77083C8.33333 6.35643 8.49795 5.959 8.79098 5.66598C9.084 5.37295 9.48143 5.20833 9.89583 5.20833C10.3102 5.20833 10.7077 5.37295 11.0007 5.66598C11.2937 5.959 11.4583 6.35643 11.4583 6.77083C11.4583 7.18523 11.2937 7.58266 11.0007 7.87569C10.7077 8.16871 10.3102 8.33333 9.89583 8.33333ZM6.77083 12.5C6.35643 12.5 5.959 12.3354 5.66598 12.0424C5.37295 11.7493 5.20833 11.3519 5.20833 10.9375C5.20833 10.5231 5.37295 10.1257 5.66598 9.83265C5.959 9.53962 6.35643 9.375 6.77083 9.375C7.18523 9.375 7.58266 9.53962 7.87569 9.83265C8.16871 10.1257 8.33333 10.5231 8.33333 10.9375C8.33333 11.3519 8.16871 11.7493 7.87569 12.0424C7.58266 12.3354 7.18523 12.5 6.77083 12.5ZM12.5 3.125C10.0136 3.125 7.62903 4.11272 5.87087 5.87087C4.11272 7.62903 3.125 10.0136 3.125 12.5C3.125 14.9864 4.11272 17.371 5.87087 19.1291C7.62903 20.8873 10.0136 21.875 12.5 21.875C12.9144 21.875 13.3118 21.7104 13.6049 21.4174C13.8979 21.1243 14.0625 20.7269 14.0625 20.3125C14.0625 19.9063 13.9062 19.5417 13.6562 19.2708C13.4167 18.9896 13.2604 18.625 13.2604 18.2292C13.2604 17.8148 13.425 17.4173 13.7181 17.1243C14.0111 16.8313 14.4085 16.6667 14.8229 16.6667H16.6667C18.048 16.6667 19.3728 16.1179 20.3495 15.1412C21.3263 14.1644 21.875 12.8397 21.875 11.4583C21.875 6.85417 17.6771 3.125 12.5 3.125Z" fill="#0E65FB"/>
</svg>
