<svg width="55" height="55" viewBox="0 0 55 55" fill="none" xmlns="http://www.w3.org/2000/svg">
<circle cx="27.5" cy="27.5" r="27.5" fill="#D3E1FF"/>
<path d="M28 27.1752C25.503 27.1752 24.997 23.3912 24.997 23.3912C24.7 21.4222 25.602 19.2002 27.967 19.2002C30.343 19.2002 31.245 21.4222 30.948 23.3912C30.948 23.3912 30.497 27.1752 28 27.1752ZM28 30.0022L30.992 28.0002C33.621 28.0002 35.964 30.5632 35.964 32.9832V35.7222C35.964 35.7222 31.949 36.9652 28 36.9652C23.985 36.9652 20.036 35.7222 20.036 35.7222V32.9832C20.036 30.5082 22.17 28.0552 24.953 28.0552L28 30.0022Z" fill="#0E65FB"/>
</svg>
