<svg width="73" height="73" viewBox="0 0 73 73" fill="none" xmlns="http://www.w3.org/2000/svg">
<circle cx="36.5" cy="36.5" r="36.5" fill="#D3E1FF"/>
<mask id="path-2-inside-1_2_309" fill="white">
<path d="M23.232 53C22.3107 53 21.542 52.692 20.926 52.076C20.31 51.46 20.0013 50.6907 20 49.768V24.232C20 23.3107 20.3087 22.542 20.926 21.926C21.5433 21.31 22.3113 21.0013 23.23 21H41.846V23H23.232C22.924 23 22.6413 23.128 22.384 23.384C22.1267 23.64 21.9987 23.9227 22 24.232V49.77C22 50.0767 22.128 50.3587 22.384 50.616C22.64 50.8733 22.922 51.0013 23.23 51H48.77C49.0767 51 49.3587 50.872 49.616 50.616C49.8733 50.36 50.0013 50.078 50 49.77V31.154H52V49.77C52 50.69 51.692 51.4587 51.076 52.076C50.46 52.6933 49.6907 53.0013 48.768 53H23.232ZM29 46V44H43V46H29ZM29 40V38H43V40H29ZM29 34V32H43V34H29ZM48 29V25H44V23H48V19H50V23H54V25H50V29H48Z"/>
</mask>
<path d="M23.232 53C22.3107 53 21.542 52.692 20.926 52.076C20.31 51.46 20.0013 50.6907 20 49.768V24.232C20 23.3107 20.3087 22.542 20.926 21.926C21.5433 21.31 22.3113 21.0013 23.23 21H41.846V23H23.232C22.924 23 22.6413 23.128 22.384 23.384C22.1267 23.64 21.9987 23.9227 22 24.232V49.77C22 50.0767 22.128 50.3587 22.384 50.616C22.64 50.8733 22.922 51.0013 23.23 51H48.77C49.0767 51 49.3587 50.872 49.616 50.616C49.8733 50.36 50.0013 50.078 50 49.77V31.154H52V49.77C52 50.69 51.692 51.4587 51.076 52.076C50.46 52.6933 49.6907 53.0013 48.768 53H23.232ZM29 46V44H43V46H29ZM29 40V38H43V40H29ZM29 34V32H43V34H29ZM48 29V25H44V23H48V19H50V23H54V25H50V29H48Z" fill="#0E65FB"/>
<path d="M20 49.768H17L17 49.7723L20 49.768ZM23.23 21V18L23.2256 18L23.23 21ZM41.846 21H44.846V18H41.846V21ZM41.846 23V26H44.846V23H41.846ZM22 24.232H25L25 24.2191L22 24.232ZM23.23 51V48L23.217 48L23.23 51ZM50 49.77H47L47 49.783L50 49.77ZM50 31.154V28.154H47V31.154H50ZM52 31.154H55V28.154H52V31.154ZM48.768 53L48.7723 50H48.768V53ZM29 46H26V49H29V46ZM29 44V41H26V44H29ZM43 44H46V41H43V44ZM43 46V49H46V46H43ZM29 40H26V43H29V40ZM29 38V35H26V38H29ZM43 38H46V35H43V38ZM43 40V43H46V40H43ZM29 34H26V37H29V34ZM29 32V29H26V32H29ZM43 32H46V29H43V32ZM43 34V37H46V34H43ZM48 29H45V32H48V29ZM48 25H51V22H48V25ZM44 25H41V28H44V25ZM44 23V20H41V23H44ZM48 23V26H51V23H48ZM48 19V16H45V19H48ZM50 19H53V16H50V19ZM50 23H47V26H50V23ZM54 23H57V20H54V23ZM54 25V28H57V25H54ZM50 25V22H47V25H50ZM50 29V32H53V29H50ZM23.232 53V50C23.1691 50 23.129 49.9948 23.1075 49.9909C23.0966 49.9889 23.0895 49.9871 23.0856 49.9859C23.0837 49.9854 23.0823 49.9849 23.0815 49.9847C23.0807 49.9844 23.0803 49.9842 23.0803 49.9842C23.0803 49.9842 23.0804 49.9843 23.0805 49.9843C23.0806 49.9844 23.0808 49.9844 23.081 49.9845C23.0813 49.9847 23.0818 49.9849 23.0821 49.9851C23.0831 49.9856 23.083 49.9856 23.0818 49.9848C23.0802 49.9837 23.0684 49.9758 23.0473 49.9547L20.926 52.076L18.8047 54.1973C20.0183 55.4109 21.5659 56 23.232 56V53ZM20.926 52.076L23.0473 49.9547C23.0262 49.9336 23.0182 49.9217 23.0169 49.9198C23.016 49.9184 23.0159 49.9182 23.0163 49.9189C23.0166 49.9196 23.0168 49.9201 23.0168 49.9199C23.0167 49.9197 23.0159 49.9178 23.0147 49.9136C23.0135 49.9094 23.0116 49.9019 23.0095 49.8906C23.0054 49.8683 23.0001 49.8274 23 49.7637L20 49.768L17 49.7723C17.0024 51.437 17.5913 52.984 18.8047 54.1973L20.926 52.076ZM20 49.768H23V24.232H20H17V49.768H20ZM20 24.232H23C23 24.1114 23.019 24.0735 23.0154 24.0824C23.0147 24.0841 23.0137 24.0856 23.0146 24.0843C23.0157 24.0827 23.0237 24.0709 23.045 24.0496L20.926 21.926L18.807 19.8024C17.5912 21.0155 17 22.5639 17 24.232H20ZM20.926 21.926L23.045 24.0496C23.0672 24.0275 23.08 24.0187 23.0827 24.0169C23.0844 24.0157 23.085 24.0155 23.0845 24.0157C23.084 24.016 23.0836 24.0162 23.0838 24.0161C23.0839 24.016 23.0857 24.0153 23.0897 24.0142C23.0936 24.013 23.1008 24.0112 23.1115 24.0092C23.1328 24.0053 23.1724 24.0001 23.2344 24L23.23 21L23.2256 18C21.561 18.0024 20.0181 18.5939 18.807 19.8024L20.926 21.926ZM23.23 21V24H41.846V21V18H23.23V21ZM41.846 21H38.846V23H41.846H44.846V21H41.846ZM41.846 23V20H23.232V23V26H41.846V23ZM23.232 23V20C21.9908 20 20.9798 20.5493 20.2682 21.2572L22.384 23.384L24.4998 25.5108C24.4166 25.5936 24.2621 25.7222 24.0265 25.8289C23.782 25.9396 23.5081 26 23.232 26V23ZM22.384 23.384L20.2682 21.2572C19.5483 21.9733 18.9946 22.9939 19 24.2449L22 24.232L25 24.2191C25.0012 24.497 24.9412 24.7753 24.8279 25.0255C24.7187 25.2667 24.586 25.425 24.4998 25.5108L22.384 23.384ZM22 24.232H19V49.77H22H25V24.232H22ZM22 49.77H19C19 51.0134 19.5522 52.0232 20.2572 52.7318L22.384 50.616L24.5108 48.5002C24.5925 48.5823 24.7209 48.7361 24.8278 48.9716C24.9387 49.2161 25 49.4913 25 49.77H22ZM22.384 50.616L20.2572 52.7318C20.9704 53.4487 21.9897 54.0054 23.243 54L23.23 51L23.217 48C23.4975 47.9988 23.7772 48.0597 24.0274 48.1732C24.2684 48.2826 24.4261 48.415 24.5108 48.5002L22.384 50.616ZM23.23 51V54H48.77V51V48H23.23V51ZM48.77 51V54C50.0134 54 51.0232 53.4478 51.7318 52.7428L49.616 50.616L47.5002 48.4892C47.5823 48.4075 47.7361 48.2791 47.9716 48.1722C48.2161 48.0613 48.4913 48 48.77 48V51ZM49.616 50.616L51.7318 52.7428C52.4487 52.0296 53.0054 51.0103 53 49.757L50 49.77L47 49.783C46.9988 49.5025 47.0597 49.2228 47.1732 48.9726C47.2826 48.7316 47.415 48.5739 47.5002 48.4892L49.616 50.616ZM50 49.77H53V31.154H50H47V49.77H50ZM50 31.154V34.154H52V31.154V28.154H50V31.154ZM52 31.154H49V49.77H52H55V31.154H52ZM52 49.77H49C49 49.8323 48.9948 49.872 48.9909 49.8933C48.989 49.9041 48.9872 49.9112 48.986 49.9151C48.9849 49.919 48.9842 49.9207 48.9842 49.9207C48.9842 49.9207 48.9843 49.9206 48.9844 49.9203C48.9845 49.92 48.9847 49.9197 48.9848 49.9194C48.9852 49.9187 48.9851 49.919 48.9841 49.9205C48.9826 49.9228 48.9741 49.9352 48.9524 49.957L51.076 52.076L53.1996 54.195C54.4102 52.9819 55 51.436 55 49.77H52ZM51.076 52.076L48.9524 49.957C48.9315 49.9779 48.9201 49.9855 48.9189 49.9863C48.9181 49.9869 48.92 49.9857 48.922 49.9849C48.9315 49.9811 48.8937 50.0002 48.7723 50L48.768 53L48.7637 56C50.4332 56.0024 51.9844 55.4128 53.1996 54.195L51.076 52.076ZM48.768 53V50H23.232V53V56H48.768V53ZM29 46H32V44H29H26V46H29ZM29 44V47H43V44V41H29V44ZM43 44H40V46H43H46V44H43ZM43 46V43H29V46V49H43V46ZM29 40H32V38H29H26V40H29ZM29 38V41H43V38V35H29V38ZM43 38H40V40H43H46V38H43ZM43 40V37H29V40V43H43V40ZM29 34H32V32H29H26V34H29ZM29 32V35H43V32V29H29V32ZM43 32H40V34H43H46V32H43ZM43 34V31H29V34V37H43V34ZM48 29H51V25H48H45V29H48ZM48 25V22H44V25V28H48V25ZM44 25H47V23H44H41V25H44ZM44 23V26H48V23V20H44V23ZM48 23H51V19H48H45V23H48ZM48 19V22H50V19V16H48V19ZM50 19H47V23H50H53V19H50ZM50 23V26H54V23V20H50V23ZM54 23H51V25H54H57V23H54ZM54 25V22H50V25V28H54V25ZM50 25H47V29H50H53V25H50ZM50 29V26H48V29V32H50V29Z" fill="#0E65FB" mask="url(#path-2-inside-1_2_309)"/>
</svg>
