<svg width="20" height="20" viewBox="0 0 20 20" fill="none" xmlns="http://www.w3.org/2000/svg">
<path fill-rule="evenodd" clip-rule="evenodd" d="M16.4797 5.04018C16.8526 5.36978 16.8875 5.93997 16.5579 6.31528L9.64105 14.1343C9.56117 14.2246 9.464 14.298 9.35527 14.3502C9.24654 14.4023 9.12847 14.4321 9.00803 14.4378C8.88759 14.4435 8.76723 14.425 8.65405 14.3835C8.54088 14.3419 8.43718 14.278 8.34911 14.1957L3.83812 9.98542C3.66458 9.82187 3.56285 9.59628 3.55516 9.35795C3.54746 9.11961 3.63444 8.88793 3.79707 8.71353C3.9597 8.53914 4.18476 8.43622 4.42305 8.42728C4.66133 8.41833 4.89347 8.50409 5.06872 8.6658L8.90606 12.2385L15.2094 5.11716C15.288 5.02826 15.3834 4.95573 15.49 4.90374C15.5967 4.85174 15.7125 4.82129 15.831 4.81414C15.9494 4.80699 16.0681 4.82327 16.1803 4.86206C16.2924 4.90085 16.3958 4.96137 16.4845 5.04018H16.4797Z" fill="#5856D6"/>
</svg>
