<svg width="55" height="55" viewBox="0 0 55 55" fill="none" xmlns="http://www.w3.org/2000/svg">
<circle cx="27.5" cy="27.5" r="27.5" fill="#D3E1FF"/>
<path fill-rule="evenodd" clip-rule="evenodd" d="M31.6277 18.2482C31.5208 18.0628 31.3675 17.9084 31.1828 17.8001C30.9981 17.6919 30.7885 17.6336 30.5745 17.631C30.3604 17.6283 30.1494 17.6814 29.9621 17.785C29.7748 17.8886 29.6177 18.0392 29.5063 18.2219L23.0269 28.7994L20.7624 25.3788C20.6498 25.2088 20.4969 25.0693 20.3172 24.9729C20.1375 24.8765 19.9368 24.8261 19.7329 24.8263H17.2381C16.911 24.8263 16.5973 24.9562 16.366 25.1875C16.1347 25.4188 16.0048 25.7325 16.0048 26.0597C16.0048 26.3868 16.1347 26.7005 16.366 26.9318C16.5973 27.1631 16.911 27.293 17.2381 27.293H19.0718L22.0369 31.776C22.1513 31.949 22.3075 32.0903 22.4911 32.1869C22.6746 32.2835 22.8796 32.3323 23.0869 32.3287C23.2943 32.325 23.4974 32.2692 23.6775 32.1663C23.8576 32.0634 24.0088 31.9167 24.1172 31.7398L30.5291 21.2741L32.8216 25.2374C32.9854 25.5207 33.255 25.7273 33.5711 25.8118C33.8872 25.8963 34.224 25.8518 34.5072 25.688C34.7905 25.5242 34.9971 25.2546 35.0816 24.9385C35.1661 24.6224 35.1216 24.2857 34.9578 24.0024L31.626 18.2466L31.6277 18.2482ZM32.9729 29.7023C32.2263 29.0445 31.432 28.686 30.6344 28.6218C30.1632 28.5858 29.6898 28.6527 29.2471 28.818C28.8043 28.9832 28.4029 29.2429 28.0706 29.5789C26.8208 30.809 26.4063 33.0818 28.0015 34.6704L28.0295 34.695L32.4072 38.6748C32.5586 38.8125 32.7559 38.8888 32.9606 38.8888C33.1652 38.8888 33.3626 38.8125 33.5139 38.6748L37.8917 34.695L37.9081 34.6786C39.5164 33.1311 39.1185 30.8682 37.8818 29.6381C37.5511 29.3022 37.1521 29.0412 36.7117 28.873C36.2713 28.7047 35.8 28.6331 35.3295 28.6629C34.5319 28.7172 33.731 29.0593 32.9729 29.7023Z" fill="#0E65FB"/>
</svg>
