<svg width="24" height="24" viewBox="0 0 24 24" fill="none" xmlns="http://www.w3.org/2000/svg">
<path fill-rule="evenodd" clip-rule="evenodd" d="M15.6393 2.25992C15.5324 2.07449 15.3791 1.92008 15.1945 1.81185C15.0098 1.70363 14.8001 1.64533 14.5861 1.64267C14.3721 1.64002 14.1611 1.69311 13.9738 1.79671C13.7865 1.90032 13.6294 2.05089 13.5179 2.23361L7.03851 12.8111L4.77401 9.39055C4.66146 9.22053 4.50851 9.08107 4.32886 8.98464C4.1492 8.88821 3.94844 8.83782 3.74454 8.83799H1.24981C0.922692 8.83799 0.608975 8.96794 0.37767 9.19924C0.146364 9.43055 0.0164185 9.74426 0.0164185 10.0714C0.0164185 10.3985 0.146364 10.7122 0.37767 10.9435C0.608975 11.1748 0.922692 11.3048 1.24981 11.3048H3.08345L6.04851 15.7877C6.16296 15.9607 6.31918 16.102 6.50272 16.1986C6.68627 16.2952 6.89121 16.344 7.0986 16.3404C7.30598 16.3368 7.5091 16.2809 7.68918 16.178C7.86925 16.0751 8.02046 15.9284 8.12883 15.7515L14.5408 5.28583L16.8333 9.24912C16.997 9.5324 17.2666 9.73902 17.5828 9.82352C17.8989 9.90803 18.2356 9.86349 18.5189 9.69972C18.8022 9.53594 19.0088 9.26634 19.0933 8.95022C19.1778 8.63411 19.1333 8.29737 18.9695 8.01409L15.6377 2.25827L15.6393 2.25992ZM16.9846 13.714C16.2379 13.0562 15.4436 12.6977 14.6461 12.6335C14.1749 12.5975 13.7015 12.6644 13.2587 12.8297C12.816 12.995 12.4145 13.2546 12.0822 13.5906C10.8324 14.8207 10.418 17.0935 12.0132 18.6821L12.0411 18.7067L16.4188 22.6865C16.5702 22.8242 16.7675 22.9006 16.9722 22.9006C17.1769 22.9006 17.3742 22.8242 17.5256 22.6865L21.9033 18.7067L21.9198 18.6903C23.5281 17.1428 23.1301 14.88 21.8934 13.6499C21.5628 13.3139 21.1637 13.0529 20.7234 12.8847C20.283 12.7164 19.8116 12.6448 19.3412 12.6747C18.5436 12.7289 17.7427 13.071 16.9846 13.714Z" fill="#0E65FB"/>
</svg>
