<svg width="25" height="25" viewBox="0 0 25 25" fill="none" xmlns="http://www.w3.org/2000/svg">
<path d="M7.29166 10.4162H10.4167V7.29119L6.77083 3.64536C7.93711 3.08835 9.24739 2.90661 10.5212 3.12517C11.7951 3.34373 12.9699 3.95183 13.8838 4.86574C14.7977 5.77966 15.4058 6.95442 15.6243 8.22827C15.8429 9.50213 15.6612 10.8124 15.1042 11.9787L21.3542 18.2287C21.7686 18.6431 22.0014 19.2051 22.0014 19.7912C22.0014 20.3772 21.7686 20.9393 21.3542 21.3537C20.9398 21.7681 20.3777 22.0009 19.7917 22.0009C19.2056 22.0009 18.6436 21.7681 18.2292 21.3537L11.9792 15.1037C10.8129 15.6607 9.5026 15.8424 8.22875 15.6239C6.95489 15.4053 5.78013 14.7972 4.86622 13.8833C3.95231 12.9694 3.3442 11.7946 3.12564 10.5208C2.90709 9.24692 3.08882 7.93664 3.64583 6.77036L7.29166 10.4162Z" stroke="#0E65FB" stroke-width="1.9186" stroke-linecap="round" stroke-linejoin="round"/>
</svg>
