<svg width="55" height="55" viewBox="0 0 55 55" fill="none" xmlns="http://www.w3.org/2000/svg">
<circle cx="27.5" cy="27.5" r="27.5" fill="#D3E1FF"/>
<path d="M33.2292 27.5C32.8148 27.5 32.4173 27.3354 32.1243 27.0424C31.8313 26.7493 31.6667 26.3519 31.6667 25.9375C31.6667 25.5231 31.8313 25.1257 32.1243 24.8326C32.4173 24.5396 32.8148 24.375 33.2292 24.375C33.6436 24.375 34.041 24.5396 34.334 24.8326C34.627 25.1257 34.7917 25.5231 34.7917 25.9375C34.7917 26.3519 34.627 26.7493 34.334 27.0424C34.041 27.3354 33.6436 27.5 33.2292 27.5ZM30.1042 23.3333C29.6898 23.3333 29.2923 23.1687 28.9993 22.8757C28.7063 22.5827 28.5417 22.1852 28.5417 21.7708C28.5417 21.3564 28.7063 20.959 28.9993 20.666C29.2923 20.373 29.6898 20.2083 30.1042 20.2083C30.5186 20.2083 30.916 20.373 31.209 20.666C31.502 20.959 31.6667 21.3564 31.6667 21.7708C31.6667 22.1852 31.502 22.5827 31.209 22.8757C30.916 23.1687 30.5186 23.3333 30.1042 23.3333ZM24.8958 23.3333C24.4814 23.3333 24.084 23.1687 23.791 22.8757C23.498 22.5827 23.3333 22.1852 23.3333 21.7708C23.3333 21.3564 23.498 20.959 23.791 20.666C24.084 20.373 24.4814 20.2083 24.8958 20.2083C25.3102 20.2083 25.7077 20.373 26.0007 20.666C26.2937 20.959 26.4583 21.3564 26.4583 21.7708C26.4583 22.1852 26.2937 22.5827 26.0007 22.8757C25.7077 23.1687 25.3102 23.3333 24.8958 23.3333ZM21.7708 27.5C21.3564 27.5 20.959 27.3354 20.666 27.0424C20.373 26.7493 20.2083 26.3519 20.2083 25.9375C20.2083 25.5231 20.373 25.1257 20.666 24.8326C20.959 24.5396 21.3564 24.375 21.7708 24.375C22.1852 24.375 22.5827 24.5396 22.8757 24.8326C23.1687 25.1257 23.3333 25.5231 23.3333 25.9375C23.3333 26.3519 23.1687 26.7493 22.8757 27.0424C22.5827 27.3354 22.1852 27.5 21.7708 27.5ZM27.5 18.125C25.0136 18.125 22.629 19.1127 20.8709 20.8709C19.1127 22.629 18.125 25.0136 18.125 27.5C18.125 29.9864 19.1127 32.371 20.8709 34.1291C22.629 35.8873 25.0136 36.875 27.5 36.875C27.9144 36.875 28.3118 36.7104 28.6049 36.4174C28.8979 36.1243 29.0625 35.7269 29.0625 35.3125C29.0625 34.9063 28.9062 34.5417 28.6562 34.2708C28.4167 33.9896 28.2604 33.625 28.2604 33.2292C28.2604 32.8148 28.425 32.4173 28.7181 32.1243C29.0111 31.8313 29.4085 31.6667 29.8229 31.6667H31.6667C33.048 31.6667 34.3728 31.1179 35.3495 30.1412C36.3263 29.1644 36.875 27.8397 36.875 26.4583C36.875 21.8542 32.6771 18.125 27.5 18.125Z" fill="#0E65FB"/>
</svg>
