<svg width="25" height="25" viewBox="0 0 25 25" fill="none" xmlns="http://www.w3.org/2000/svg">
<path d="M20.8333 10.0734V9.89627C20.8396 8.12434 20.2774 6.3971 19.2293 4.96837C18.1812 3.53964 16.7025 2.48477 15.0104 1.95877H14.9479C14.0741 1.69201 13.1635 1.56544 12.25 1.58377C10.0748 1.70314 8.02717 2.64809 6.52498 4.22578C5.02279 5.80346 4.1793 7.89494 4.16665 10.0734C3.55625 10.2881 3.02755 10.687 2.65355 11.215C2.27954 11.7431 2.07867 12.3742 2.07867 13.0213C2.07867 13.6683 2.27954 14.2995 2.65355 14.8275C3.02755 15.3555 3.55625 15.7545 4.16665 15.9692C4.3812 18.0263 5.35303 19.93 6.89319 21.3104C8.43335 22.6908 10.4318 23.4491 12.5 23.4379H12.7396C14.7395 23.3411 16.6405 22.5388 18.1051 21.1734C19.5696 19.808 20.503 17.9679 20.7396 15.9796C21.3572 15.777 21.8962 15.3869 22.2817 14.8636C22.6671 14.3403 22.8798 13.7098 22.8902 13.0599C22.9005 12.41 22.7079 11.7731 22.3392 11.2378C21.9706 10.7025 21.4442 10.2954 20.8333 10.0734ZM12.6875 21.3546C11.1796 21.3982 9.70675 20.895 8.54082 19.9377C7.37489 18.9805 6.59453 17.6338 6.34374 16.1463H18.6042C18.3499 17.5545 17.627 18.8354 16.5529 19.7809C15.4788 20.7264 14.1166 21.281 12.6875 21.3546ZM19.7917 14.0629H5.20832C4.93205 14.0629 4.6671 13.9532 4.47175 13.7578C4.2764 13.5625 4.16665 13.2975 4.16665 13.0213C4.16665 12.745 4.2764 12.4801 4.47175 12.2847C4.6671 12.0894 4.93205 11.9796 5.20832 11.9796H7.29165C7.56792 11.9796 7.83287 11.8699 8.02822 11.6745C8.22357 11.4792 8.33332 11.2142 8.33332 10.9379C8.33332 10.6617 8.22357 10.3967 8.02822 10.2014C7.83287 10.006 7.56792 9.89627 7.29165 9.89627H6.24999C6.29662 8.81566 6.60547 7.76262 7.1499 6.82801C7.69433 5.8934 8.45799 5.10529 9.37499 4.53169V7.81294C9.37499 8.08921 9.48473 8.35416 9.68008 8.54951C9.87543 8.74486 10.1404 8.85461 10.4167 8.85461C10.6929 8.85461 10.9579 8.74486 11.1532 8.54951C11.3486 8.35416 11.4583 8.08921 11.4583 7.81294V3.74002C11.741 3.69201 12.0262 3.6607 12.3125 3.64627H12.5C12.849 3.65255 13.1971 3.68388 13.5417 3.74002V7.81294C13.5417 8.08921 13.6514 8.35416 13.8468 8.54951C14.0421 8.74486 14.3071 8.85461 14.5833 8.85461C14.8596 8.85461 15.1245 8.74486 15.3199 8.54951C15.5152 8.35416 15.625 8.08921 15.625 7.81294V4.50044C16.0666 4.75665 16.4788 5.06055 16.8542 5.40669C17.4547 5.98992 17.932 6.68786 18.2577 7.45908C18.5834 8.23031 18.7508 9.0591 18.75 9.89627H17.7083C17.4321 9.89627 17.1671 10.006 16.9717 10.2014C16.7764 10.3967 16.6667 10.6617 16.6667 10.9379C16.6667 11.2142 16.7764 11.4792 16.9717 11.6745C17.1671 11.8699 17.4321 11.9796 17.7083 11.9796H19.7917C20.0679 11.9796 20.3329 12.0894 20.5282 12.2847C20.7236 12.4801 20.8333 12.745 20.8333 13.0213C20.8333 13.2975 20.7236 13.5625 20.5282 13.7578C20.3329 13.9532 20.0679 14.0629 19.7917 14.0629Z" fill="#0E65FB"/>
</svg>
