<svg width="25" height="25" viewBox="0 0 25 25" fill="none" xmlns="http://www.w3.org/2000/svg">
<path d="M24.2625 11.975L13.0125 0.725001C12.5438 0.2601 11.9102 -0.00052603 11.25 7.97141e-07H2.5C1.83696 7.97141e-07 1.20107 0.263393 0.732234 0.732234C0.263393 1.20107 7.84913e-07 1.83696 7.84913e-07 2.5V11.25C-0.000260615 11.5799 0.0647709 11.9066 0.191347 12.2112C0.317923 12.5159 0.50354 12.7924 0.737501 13.025L11.9875 24.275C12.4562 24.7399 13.0898 25.0005 13.75 25C14.412 24.9972 15.0458 24.732 15.5125 24.2625L24.2625 15.5125C24.732 15.0458 24.9972 14.412 25 13.75C25.0003 13.4201 24.9352 13.0934 24.8087 12.7888C24.6821 12.4842 24.4965 12.2076 24.2625 11.975ZM13.75 22.5L2.5 11.25V2.5H11.25L22.5 13.75M5.625 3.75C5.99584 3.75 6.35835 3.85997 6.66669 4.066C6.97504 4.27202 7.21536 4.56486 7.35728 4.90747C7.49919 5.25008 7.53632 5.62708 7.46397 5.9908C7.39163 6.35451 7.21305 6.6886 6.95083 6.95083C6.6886 7.21305 6.35451 7.39163 5.9908 7.46397C5.62708 7.53632 5.25008 7.49919 4.90747 7.35728C4.56486 7.21536 4.27202 6.97504 4.066 6.66669C3.85997 6.35835 3.75 5.99584 3.75 5.625C3.75 5.12772 3.94754 4.65081 4.29918 4.29918C4.65081 3.94754 5.12772 3.75 5.625 3.75Z" fill="black"/>
</svg>
